<?xml version="1.0" encoding="UTF-8"?>
<svg xmlns="http://www.w3.org/2000/svg" viewBox="0 0 570.1 200">
  <defs>
    <style>
      .cls-1 {
        fill: #9b6aa5;
      }

      .cls-1, .cls-2, .cls-3, .cls-4, .cls-5 {
        stroke-width: 0px;
      }

      .cls-2 {
        fill: #91f65c;
      }

      .cls-3 {
        fill: #736fb1;
      }

      .cls-4 {
        fill: #fff;
      }

      .cls-5 {
        fill: #feff9b;
      }
    </style>
  </defs>
  <g id="text">
    <g>
      <g>
        <path class="cls-4" d="m0,157.15h7.38v-45.46H0v-.93h14.95l12.3,35.76h.13l12.3-35.76h14.69v.93h-7.38v45.46h7.38v.93h-21.4v-.93h7.38v-45.06h-.13l-15.88,46.06-15.82-45.6h-.13v44.6h7.38v.93H0v-.93Z"/>
        <path class="cls-4" d="m60.62,134.35c0-3.54.7-6.82,2.09-9.84,1.4-3.01,3.19-5.63,5.38-7.84,2.19-2.21,4.66-3.95,7.41-5.22,2.75-1.26,5.49-1.89,8.24-1.89,2.92,0,5.77.63,8.54,1.89,2.77,1.26,5.24,3,7.41,5.22,2.17,2.22,3.91,4.83,5.22,7.84,1.31,3.01,1.96,6.29,1.96,9.84,0,3.1-.6,6.14-1.79,9.11-1.2,2.97-2.84,5.61-4.92,7.91-2.08,2.3-4.53,4.17-7.34,5.58-2.81,1.42-5.84,2.13-9.07,2.13s-6.4-.69-9.24-2.06c-2.84-1.37-5.28-3.2-7.34-5.48-2.06-2.28-3.67-4.92-4.82-7.91-1.15-2.99-1.73-6.08-1.73-9.27Zm7.64,0c0,3.99.27,7.47.8,10.43.53,2.97,1.42,5.45,2.66,7.44,1.24,1.99,2.84,3.48,4.79,4.45,1.95.98,4.36,1.46,7.24,1.46s5.24-.49,7.21-1.46c1.97-.97,3.58-2.46,4.82-4.45,1.24-1.99,2.13-4.47,2.66-7.44.53-2.97.8-6.45.8-10.43,0-3.06-.2-6.02-.6-8.87s-1.16-5.41-2.29-7.64c-1.13-2.24-2.7-4.02-4.72-5.35-2.02-1.33-4.64-1.99-7.88-1.99s-5.86.66-7.88,1.99c-2.02,1.33-3.59,3.11-4.72,5.35-1.13,2.24-1.89,4.79-2.29,7.64s-.6,5.82-.6,8.87Z"/>
        <path class="cls-4" d="m115.91,134.35c0-3.54.7-6.82,2.09-9.84,1.4-3.01,3.19-5.63,5.38-7.84,2.19-2.21,4.66-3.95,7.41-5.22,2.75-1.26,5.49-1.89,8.24-1.89,2.92,0,5.77.63,8.54,1.89,2.77,1.26,5.24,3,7.41,5.22,2.17,2.22,3.91,4.83,5.22,7.84,1.31,3.01,1.96,6.29,1.96,9.84,0,3.1-.6,6.14-1.79,9.11-1.2,2.97-2.84,5.61-4.92,7.91-2.08,2.3-4.53,4.17-7.34,5.58-2.81,1.42-5.84,2.13-9.07,2.13s-6.4-.69-9.24-2.06c-2.84-1.37-5.28-3.2-7.34-5.48-2.06-2.28-3.67-4.92-4.82-7.91-1.15-2.99-1.73-6.08-1.73-9.27Zm7.64,0c0,3.99.27,7.47.8,10.43.53,2.97,1.42,5.45,2.66,7.44,1.24,1.99,2.84,3.48,4.79,4.45,1.95.98,4.36,1.46,7.24,1.46s5.24-.49,7.21-1.46c1.97-.97,3.58-2.46,4.82-4.45,1.24-1.99,2.13-4.47,2.66-7.44.53-2.97.8-6.45.8-10.43,0-3.06-.2-6.02-.6-8.87-.4-2.86-1.16-5.41-2.29-7.64-1.13-2.24-2.7-4.02-4.72-5.35-2.02-1.33-4.64-1.99-7.88-1.99s-5.86.66-7.88,1.99c-2.02,1.33-3.59,3.11-4.72,5.35-1.13,2.24-1.89,4.79-2.29,7.64s-.6,5.82-.6,8.87Z"/>
        <path class="cls-4" d="m168.69,157.15h7.38v-45.46h-7.38v-.93h12.36c.62,0,1.24-.01,1.86-.03.62-.02,1.24-.06,1.86-.1.62,0,1.24-.01,1.86-.03.62-.02,1.24-.03,1.86-.03,1.33,0,2.51.02,3.56.07,1.04.04,2.02.12,2.92.23.91.11,1.77.27,2.59.47.82.2,1.69.46,2.63.76,2.7.89,5.04,2.07,7.01,3.56,1.97,1.49,3.59,3.2,4.85,5.15,1.26,1.95,2.19,4.08,2.79,6.38.6,2.3.9,4.72.9,7.24,0,2.92-.35,5.55-1.06,7.88-.71,2.33-1.68,4.39-2.92,6.18-1.24,1.79-2.69,3.35-4.35,4.65-1.66,1.31-3.45,2.36-5.35,3.16-1.06.49-2.07.86-3.02,1.13-.95.27-1.93.47-2.92.6-1,.13-2.09.22-3.29.27-1.2.04-2.57.07-4.12.07-.66,0-1.37-.01-2.13-.03-.75-.02-1.51-.06-2.26-.1-.75-.04-1.5-.08-2.23-.1-.73-.02-1.43-.03-2.09-.03h-11.3v-.93Zm14.02,0c.75.09,1.63.16,2.63.2,1,.04,2.09.07,3.29.07,1.51,0,3-.08,4.49-.23,1.48-.15,2.9-.49,4.25-1,1.35-.51,2.61-1.24,3.79-2.19,1.17-.95,2.23-2.2,3.16-3.76,1.42-2.39,2.4-4.84,2.96-7.34.55-2.5.83-5.24.83-8.21,0-3.5-.33-6.68-1-9.54s-1.76-5.29-3.29-7.31c-1.53-2.02-3.56-3.58-6.08-4.69-2.53-1.11-5.65-1.66-9.37-1.66-1.11,0-2.12.02-3.02.07-.91.04-1.78.09-2.63.13v45.46Z"/>
        <path class="cls-4" d="m222.85,157.15h7.38v-45.46h-7.38v-.93h38.02v11.5h-.73c-.58-1.73-1.2-3.25-1.86-4.55-.66-1.31-1.46-2.41-2.39-3.32-.93-.91-2.04-1.58-3.32-2.03-1.29-.44-2.84-.66-4.65-.66h-11.03v20.54h4.32c1.46,0,2.7-.13,3.72-.4,1.02-.27,1.89-.76,2.63-1.5.73-.73,1.35-1.73,1.86-2.99.51-1.26,1.01-2.89,1.5-4.89h.73v20.67h-.73c-.31-1.28-.63-2.53-.96-3.72s-.8-2.26-1.4-3.19c-.6-.93-1.4-1.67-2.39-2.23-1-.55-2.29-.83-3.89-.83h-5.38v23.99h12.56c2.44,0,4.46-.52,6.08-1.56,1.62-1.04,2.94-2.28,3.95-3.72,1.02-1.44,1.77-2.94,2.26-4.49.49-1.55.8-2.84.93-3.86h.73v14.56h-40.54v-.93Z"/>
        <path class="cls-4" d="m269.64,157.15h7.38v-45.46h-7.38v-.93h21.4v.93h-7.38v45.46h11.83c3.9,0,6.96-1.22,9.17-3.66,2.22-2.44,3.83-5.76,4.85-9.97h.73v14.56h-40.61v-.93Z"/>
        <path class="cls-4" d="m315.37,157.15h7.38v-45.46h-7.38v-.93h21.4v.93h-7.38v45.46h7.38v.93h-21.4v-.93Z"/>
        <path class="cls-4" d="m390.41,141.13h-5.32v15.09h-.8c-.49-.49-.89-.82-1.2-1-.31-.18-.8-.27-1.46-.27-.8,0-1.61.21-2.43.63-.82.42-1.77.9-2.86,1.43-1.09.53-2.36,1.01-3.82,1.43-1.46.42-3.23.63-5.32.63-3.15,0-5.94-.52-8.37-1.56-2.44-1.04-4.79-2.69-7.05-4.95-2.22-2.21-4.05-4.83-5.52-7.84-1.46-3.01-2.19-6.4-2.19-10.17,0-2.53.29-4.8.86-6.81.58-2.02,1.27-3.78,2.09-5.28.82-1.51,1.66-2.77,2.53-3.79.86-1.02,1.58-1.82,2.16-2.39,1.99-1.99,4.28-3.61,6.85-4.85,2.57-1.24,5.49-1.86,8.77-1.86,1.68,0,3.07.13,4.15.4,1.09.27,2.03.56,2.83.9.8.33,1.52.63,2.16.9.64.27,1.36.4,2.16.4.89,0,1.52-.12,1.89-.37.38-.24.74-.59,1.1-1.03h1v13.29h-.73c-.18-1.15-.52-2.5-1.03-4.05-.51-1.55-1.31-3.03-2.39-4.45-1.09-1.42-2.53-2.61-4.32-3.59-1.79-.97-4.09-1.46-6.88-1.46-3.32,0-5.99.7-8.01,2.09-2.02,1.4-3.59,3.24-4.72,5.52-1.13,2.28-1.88,4.86-2.26,7.74-.38,2.88-.57,5.78-.57,8.71,0,1.99.09,3.99.27,5.98.18,1.99.48,3.88.9,5.65.42,1.77,1.01,3.41,1.76,4.92.75,1.51,1.73,2.79,2.92,3.85,1.33,1.2,2.7,2.03,4.12,2.49,1.42.47,3.26.7,5.52.7,1.37,0,2.75-.23,4.12-.7,1.37-.47,2.6-1.16,3.69-2.09,1.09-.93,1.97-2.12,2.66-3.56.69-1.44,1.03-3.13,1.03-5.08v-5.58h-8.57v-.93h20.27v.93Z"/>
        <path class="cls-4" d="m393.86,157.15h7.38v-45.46h-7.38v-.93h21.4v.93h-7.38v21.73h22.13v-21.73h-7.38v-.93h21.4v.93h-7.38v45.46h7.38v.93h-21.4v-.93h7.38v-22.8h-22.13v22.8h7.38v.93h-21.4v-.93Z"/>
        <path class="cls-4" d="m458.07,157.15h7.38v-45.46h-3.86c-.89,0-1.88.08-2.99.23-1.11.16-2.23.59-3.36,1.3-1.13.71-2.22,1.83-3.26,3.36-1.04,1.53-1.94,3.64-2.69,6.35h-.73v-12.16h40.41v12.16h-.73c-.75-2.7-1.65-4.82-2.69-6.35-1.04-1.53-2.13-2.65-3.26-3.36-1.13-.71-2.25-1.14-3.36-1.3-1.11-.15-2.11-.23-2.99-.23h-3.85v45.46h7.38v.93h-21.4v-.93Z"/>
        <path class="cls-4" d="m496.48,143.79h.73c.49,2.39,1.12,4.41,1.89,6.05.77,1.64,1.63,2.99,2.56,4.05.93,1.06,1.9,1.88,2.92,2.46,1.02.58,2.05,1,3.09,1.26,1.04.27,2.04.42,2.99.47.95.04,1.85.07,2.69.07,2.35,0,4.28-.35,5.78-1.06,1.51-.71,2.7-1.61,3.59-2.69.89-1.09,1.51-2.26,1.86-3.52.35-1.26.53-2.43.53-3.49,0-1.55-.29-2.88-.86-3.99-.58-1.11-1.31-2.05-2.19-2.82-.89-.77-1.85-1.41-2.89-1.89-1.04-.49-2.03-.86-2.96-1.13l-7.64-2.33c-3.59-1.11-6.3-2.57-8.14-4.39-1.84-1.82-2.76-4.25-2.76-7.31,0-1.99.35-3.84,1.06-5.55.71-1.71,1.71-3.18,2.99-4.42,1.28-1.24,2.82-2.22,4.62-2.92,1.79-.71,3.76-1.06,5.88-1.06,1.55,0,2.85.13,3.89.4,1.04.27,1.94.56,2.69.9.75.33,1.43.63,2.03.9.6.27,1.21.4,1.83.4.58,0,.96-.08,1.16-.23.2-.15.48-.54.83-1.16h.93v12.03h-.8c-.27-1.6-.72-3.13-1.36-4.62-.64-1.48-1.47-2.79-2.49-3.92-1.02-1.13-2.25-2.04-3.69-2.72-1.44-.69-3.11-1.03-5.02-1.03-1.06,0-2.24.14-3.52.43-1.29.29-2.48.79-3.59,1.5-1.11.71-2.03,1.64-2.76,2.79-.73,1.15-1.1,2.61-1.1,4.39,0,1.42.29,2.63.86,3.62.58,1,1.32,1.84,2.23,2.53.91.69,1.93,1.26,3.06,1.73,1.13.47,2.27.88,3.42,1.23l8.04,2.53c.84.27,1.9.62,3.19,1.06,1.28.44,2.54,1.11,3.76,1.99,1.22.89,2.26,2.06,3.12,3.52.86,1.46,1.3,3.32,1.3,5.58,0,2.08-.39,4.07-1.16,5.95-.78,1.88-1.89,3.55-3.36,4.98-1.46,1.44-3.24,2.59-5.32,3.46-2.08.86-4.43,1.3-7.05,1.3-.93,0-1.75-.01-2.46-.03-.71-.02-1.37-.08-1.99-.17-.62-.09-1.24-.19-1.86-.3-.62-.11-1.31-.28-2.06-.5-.89-.27-1.84-.58-2.86-.93-1.02-.35-1.91-.53-2.66-.53-.66,0-1.12.13-1.36.4-.24.27-.45.62-.63,1.06h-1v-14.29Z"/>
      </g>
      <g>
        <path class="cls-2" d="m237.31,190.47h-9.63l-2.07,4.62h-1.9l7.9-17.28h1.8l7.9,17.28h-1.93l-2.07-4.62Zm-.67-1.48l-4.15-9.28-4.15,9.28h8.3Z"/>
        <path class="cls-2" d="m255.32,178.74c-.39.41-.58,1.02-.58,1.83v1.53h4v1.48h-3.95v11.51h-1.75v-11.51h-2.32v-1.48h2.32v-1.6c0-1.19.34-2.12,1.02-2.81.68-.69,1.65-1.04,2.9-1.04.49,0,.97.07,1.43.21.46.14.85.34,1.16.6l-.59,1.31c-.51-.43-1.15-.64-1.93-.64s-1.33.21-1.72.62Zm5.79-1.98h1.75v18.32h-1.75v-18.32Z"/>
        <path class="cls-2" d="m277.43,183.27c.91.85,1.36,2.1,1.36,3.77v8.05h-1.68v-2.02c-.4.68-.98,1.2-1.74,1.58-.77.38-1.68.57-2.73.57-1.45,0-2.6-.35-3.46-1.04-.86-.69-1.28-1.6-1.28-2.74s.4-1.99,1.2-2.67c.8-.67,2.07-1.01,3.81-1.01h4.12v-.79c0-1.12-.31-1.97-.94-2.56-.63-.58-1.54-.88-2.74-.88-.82,0-1.61.14-2.37.41-.76.27-1.41.65-1.95,1.12l-.79-1.31c.66-.56,1.45-.99,2.37-1.3.92-.3,1.89-.46,2.91-.46,1.7,0,3,.42,3.9,1.27Zm-1.98,9.88c.71-.45,1.23-1.11,1.58-1.96v-2.12h-4.07c-2.22,0-3.33.77-3.33,2.32,0,.76.29,1.35.86,1.79.58.44,1.38.65,2.42.65s1.84-.23,2.54-.68Z"/>
        <path class="cls-2" d="m295.45,182.1l-5.78,12.99h-1.8l-5.75-12.99h1.83l4.86,11.06,4.91-11.06h1.73Z"/>
        <path class="cls-2" d="m300.71,194.36c-1-.57-1.79-1.35-2.37-2.36-.58-1-.86-2.14-.86-3.41s.29-2.4.86-3.41c.58-1,1.37-1.79,2.37-2.35,1-.56,2.13-.84,3.38-.84s2.38.28,3.38.84c1,.56,1.79,1.34,2.36,2.35.57,1,.85,2.14.85,3.41s-.28,2.4-.85,3.41c-.57,1-1.35,1.79-2.36,2.36-1,.57-2.13.85-3.38.85s-2.38-.28-3.38-.85Zm5.86-1.33c.73-.42,1.3-1.02,1.72-1.79.41-.77.62-1.65.62-2.64s-.21-1.87-.62-2.64-.98-1.37-1.72-1.79c-.73-.42-1.56-.63-2.48-.63s-1.75.21-2.48.63c-.73.42-1.31,1.02-1.73,1.79-.42.77-.63,1.65-.63,2.64s.21,1.87.63,2.64c.42.77,1,1.37,1.73,1.79.73.42,1.56.63,2.48.63s1.75-.21,2.48-.63Z"/>
        <path class="cls-2" d="m319.02,182.67c.81-.44,1.82-.67,3.02-.67v1.7l-.42-.02c-1.37,0-2.44.42-3.21,1.26-.77.84-1.16,2.02-1.16,3.53v6.62h-1.75v-12.99h1.68v2.54c.41-.87,1.02-1.53,1.84-1.98Z"/>
        <path class="cls-2" d="m336.92,178.74c-.39.41-.58,1.02-.58,1.83v1.53h4v1.48h-3.95v11.51h-1.75v-11.51h-2.32v-1.48h2.32v-1.6c0-1.19.34-2.12,1.02-2.81.68-.69,1.65-1.04,2.9-1.04.49,0,.97.07,1.43.21.46.14.85.34,1.16.6l-.59,1.31c-.51-.43-1.15-.64-1.93-.64s-1.33.21-1.72.62Z"/>
        <path class="cls-2" d="m345.65,194.36c-1-.57-1.79-1.35-2.37-2.36-.58-1-.86-2.14-.86-3.41s.29-2.4.86-3.41c.58-1,1.37-1.79,2.37-2.35,1-.56,2.13-.84,3.38-.84s2.38.28,3.38.84c1,.56,1.79,1.34,2.36,2.35s.85,2.14.85,3.41-.28,2.4-.85,3.41-1.35,1.79-2.36,2.36c-1,.57-2.13.85-3.38.85s-2.38-.28-3.38-.85Zm5.86-1.33c.73-.42,1.3-1.02,1.72-1.79.41-.77.62-1.65.62-2.64s-.21-1.87-.62-2.64-.98-1.37-1.72-1.79c-.73-.42-1.56-.63-2.48-.63s-1.75.21-2.48.63c-.73.42-1.31,1.02-1.73,1.79-.42.77-.63,1.65-.63,2.64s.21,1.87.63,2.64c.42.77,1,1.37,1.73,1.79.73.42,1.56.63,2.48.63s1.75-.21,2.48-.63Z"/>
        <path class="cls-2" d="m363.95,182.67c.81-.44,1.82-.67,3.02-.67v1.7l-.42-.02c-1.37,0-2.44.42-3.21,1.26-.77.84-1.16,2.02-1.16,3.53v6.62h-1.75v-12.99h1.68v2.54c.41-.87,1.02-1.53,1.84-1.98Z"/>
        <path class="cls-2" d="m390.58,189.14h-10.86c.1,1.35.62,2.44,1.56,3.27.94.83,2.12,1.25,3.56,1.25.81,0,1.55-.14,2.22-.43.67-.29,1.26-.71,1.75-1.27l.99,1.14c-.58.69-1.3,1.22-2.16,1.58-.86.36-1.81.54-2.85.54-1.33,0-2.51-.28-3.54-.85-1.03-.57-1.83-1.35-2.41-2.36-.58-1-.86-2.14-.86-3.41s.28-2.4.83-3.41c.55-1,1.31-1.79,2.27-2.35.96-.56,2.04-.84,3.25-.84s2.28.28,3.23.84c.95.56,1.7,1.34,2.25,2.33.54,1,.81,2.14.81,3.42l-.03.54Zm-9.42-4.43c-.85.8-1.33,1.84-1.44,3.12h9.21c-.12-1.28-.6-2.32-1.44-3.12s-1.91-1.2-3.17-1.2-2.3.4-3.15,1.2Z"/>
        <path class="cls-2" d="m406.09,182.1l-5.78,12.99h-1.8l-5.75-12.99h1.83l4.86,11.06,4.91-11.06h1.73Z"/>
        <path class="cls-2" d="m420.73,189.14h-10.86c.1,1.35.62,2.44,1.56,3.27.94.83,2.12,1.25,3.56,1.25.81,0,1.55-.14,2.22-.43.67-.29,1.26-.71,1.75-1.27l.99,1.14c-.58.69-1.3,1.22-2.16,1.58-.86.36-1.81.54-2.85.54-1.33,0-2.51-.28-3.54-.85s-1.83-1.35-2.41-2.36-.86-2.14-.86-3.41.28-2.4.83-3.41c.55-1,1.31-1.79,2.27-2.35.96-.56,2.05-.84,3.25-.84s2.28.28,3.23.84c.95.56,1.7,1.34,2.25,2.33.54,1,.81,2.14.81,3.42l-.02.54Zm-9.42-4.43c-.85.8-1.33,1.84-1.44,3.12h9.21c-.12-1.28-.6-2.32-1.44-3.12-.85-.8-1.91-1.2-3.17-1.2s-2.3.4-3.15,1.2Z"/>
        <path class="cls-2" d="m429.08,182.67c.81-.44,1.82-.67,3.02-.67v1.7l-.42-.02c-1.37,0-2.44.42-3.21,1.26-.77.84-1.16,2.02-1.16,3.53v6.62h-1.75v-12.99h1.68v2.54c.41-.87,1.02-1.53,1.84-1.98Z"/>
        <path class="cls-2" d="m447.98,182.1l-6.49,14.54c-.53,1.22-1.14,2.08-1.83,2.59-.69.51-1.52.77-2.49.77-.63,0-1.21-.1-1.75-.3s-1.01-.49-1.41-.89l.81-1.31c.66.66,1.45.99,2.37.99.59,0,1.1-.16,1.52-.49.42-.33.81-.89,1.17-1.68l.57-1.26-5.8-12.96h1.83l4.89,11.04,4.89-11.04h1.73Z"/>
        <path class="cls-2" d="m479.43,183.41c.93.94,1.4,2.32,1.4,4.15v7.53h-1.75v-7.36c0-1.35-.33-2.38-.98-3.09-.65-.71-1.57-1.06-2.75-1.06-1.35,0-2.41.42-3.18,1.25-.77.83-1.16,1.98-1.16,3.44v6.81h-1.75v-7.36c0-1.35-.33-2.38-.98-3.09-.65-.71-1.58-1.06-2.78-1.06-1.33,0-2.39.42-3.17,1.25-.78.83-1.17,1.98-1.17,3.44v6.81h-1.75v-12.99h1.68v2.37c.46-.79,1.1-1.4,1.93-1.83.82-.43,1.77-.64,2.84-.64s2.03.23,2.83.69c.8.46,1.4,1.14,1.79,2.05.48-.86,1.16-1.53,2.06-2.01.9-.49,1.92-.73,3.07-.73,1.63,0,2.91.47,3.84,1.41Z"/>
        <path class="cls-2" d="m488.8,194.36c-1-.57-1.79-1.35-2.37-2.36-.58-1-.86-2.14-.86-3.41s.29-2.4.86-3.41c.58-1,1.37-1.79,2.37-2.35,1-.56,2.13-.84,3.38-.84s2.38.28,3.38.84c1,.56,1.79,1.34,2.36,2.35.57,1,.85,2.14.85,3.41s-.28,2.4-.85,3.41c-.57,1-1.35,1.79-2.36,2.36s-2.13.85-3.38.85-2.38-.28-3.38-.85Zm5.86-1.33c.73-.42,1.3-1.02,1.72-1.79.41-.77.62-1.65.62-2.64s-.21-1.87-.62-2.64c-.41-.77-.98-1.37-1.72-1.79-.73-.42-1.56-.63-2.48-.63s-1.75.21-2.48.63c-.73.42-1.31,1.02-1.73,1.79-.42.77-.63,1.65-.63,2.64s.21,1.87.63,2.64c.42.77,1,1.37,1.73,1.79.73.42,1.56.63,2.48.63s1.75-.21,2.48-.63Z"/>
        <path class="cls-2" d="m505.51,194.36c-1-.57-1.79-1.35-2.37-2.36-.58-1-.86-2.14-.86-3.41s.29-2.4.86-3.41c.58-1,1.37-1.79,2.37-2.35,1-.56,2.13-.84,3.38-.84s2.38.28,3.38.84c1,.56,1.79,1.34,2.36,2.35.57,1,.85,2.14.85,3.41s-.28,2.4-.85,3.41c-.57,1-1.35,1.79-2.36,2.36s-2.13.85-3.38.85-2.38-.28-3.38-.85Zm5.86-1.33c.73-.42,1.3-1.02,1.72-1.79.41-.77.62-1.65.62-2.64s-.21-1.87-.62-2.64c-.41-.77-.98-1.37-1.72-1.79-.73-.42-1.56-.63-2.48-.63s-1.75.21-2.48.63c-.73.42-1.31,1.02-1.73,1.79-.42.77-.63,1.65-.63,2.64s.21,1.87.63,2.64c.42.77,1,1.37,1.73,1.79.73.42,1.56.63,2.48.63s1.75-.21,2.48-.63Z"/>
        <path class="cls-2" d="m532.15,176.77v18.32h-1.68v-2.57c-.53.87-1.22,1.54-2.09,2s-1.84.69-2.93.69c-1.22,0-2.32-.28-3.31-.84-.99-.56-1.76-1.34-2.32-2.35-.56-1-.84-2.15-.84-3.43s.28-2.43.84-3.43c.56-1,1.33-1.78,2.32-2.33.99-.55,2.09-.83,3.31-.83,1.05,0,2,.22,2.85.65.85.44,1.54,1.07,2.09,1.91v-7.8h1.75Zm-4.09,16.26c.73-.42,1.31-1.02,1.73-1.79.42-.77.63-1.65.63-2.64s-.21-1.87-.63-2.64-1-1.37-1.73-1.79c-.73-.42-1.55-.63-2.46-.63s-1.75.21-2.48.63c-.73.42-1.31,1.02-1.73,1.79-.42.77-.63,1.65-.63,2.64s.21,1.87.63,2.64c.42.77,1,1.37,1.73,1.79.73.42,1.56.63,2.48.63s1.72-.21,2.46-.63Z"/>
      </g>
      <circle class="cls-4" cx="326.04" cy="101.78" r="4.74"/>
    </g>
  </g>
  <g id="cake">
    <path class="cls-4" d="m545.75,148.07c-.42,0-.85-.13-1.22-.4-.93-.67-1.14-1.97-.46-2.9,17.1-23.59,20.54-44.8,11.14-68.76-5.25-13.39-18.41-30.15-30.6-38.99-6.9-5.01-14.08-8.72-21.95-11.34-15.4-5.14-32.33-5.48-47.66-.95-15.87,4.69-29.31,14.12-38.85,27.29-9.16,12.63-18.98,31.48-13.75,49.54.32,1.1-.32,2.25-1.42,2.57-1.1.32-2.25-.32-2.57-1.42-3.14-10.86-3.2-28.89,14.37-53.13,10.09-13.91,24.28-23.88,41.04-28.83,16.14-4.77,33.95-4.41,50.15,1,8.27,2.76,15.82,6.66,23.07,11.92,12.96,9.4,26.44,26.57,32.03,40.84,9.98,25.43,6.39,47.85-11.64,72.72-.41.56-1.04.86-1.68.86Z"/>
    <path class="cls-3" d="m183.05,106.08c.31-.03.63-.08.9.15-.32.06-.62.04-.9-.15Z"/>
    <path class="cls-3" d="m180.29,105.6c.17-.04.34-.05.48.09-.18.09-.34.04-.48-.09Z"/>
    <path class="cls-3" d="m181.67,105.85c.17-.05.34-.07.47.1-.18.09-.33.04-.47-.1Z"/>
    <polygon class="cls-3" points="182.78 106.05 182.8 105.98 182.82 106.05 182.78 106.05"/>
  </g>
  <g id="sprinkles">
    <g>
      <path class="cls-5" d="m429.91,64.71l-30.79-7.04c-2.32-.53-3.77-2.84-3.24-5.16s2.84-3.77,5.16-3.24l30.79,7.04c2.32.53,3.77,2.84,3.24,5.16s-2.84,3.77-5.16,3.24Z"/>
      <path class="cls-2" d="m489.09,3.09l8.91,30.3c.67,2.28-.64,4.68-2.92,5.35s-4.68-.64-5.35-2.92l-8.91-30.3c-.67-2.28.64-4.68,2.92-5.35s4.68.64,5.35,2.92Z"/>
      <path class="cls-1" d="m568.13,62.26l-26.55,17.1c-2,1.29-4.66.71-5.95-1.29s-.71-4.66,1.29-5.95l26.55-17.1c2-1.29,4.66-.71,5.95,1.29s.71,4.66-1.29,5.95Z"/>
      <path class="cls-4" d="m500.35,81.16l-29.53,11.19c-2.22.84-4.71-.28-5.55-2.5s.28-4.71,2.5-5.55l29.53-11.19c2.22-.84,4.71.28,5.55,2.5s-.28,4.71-2.5,5.55Z"/>
    </g>
  </g>
</svg>